<svg width="18" height="18" viewBox="0 0 18 18" fill="none" xmlns="http://www.w3.org/2000/svg">
<path d="M11.5388 5.18785C12.349 3.77295 11.8682 1.96372 10.4649 1.14682C9.06154 0.329927 7.26712 0.81471 6.45692 2.22961L0.39809 12.8104C-0.412117 14.2253 0.0686976 16.0346 1.47202 16.8515C2.87534 17.6684 4.66976 17.1836 5.47997 15.7687L11.5388 5.18785Z" fill="#F8BB2D"/>
<path d="M5.86969 14.2909C5.86969 15.9251 4.55572 17.2499 2.93485 17.2499C1.31398 17.2499 0 15.9251 0 14.2909C0 12.6566 1.31398 11.3318 2.93485 11.3318C4.55572 11.3318 5.86969 12.6566 5.86969 14.2909Z" fill="#3BA757"/>
<path d="M6.46572 5.18785C5.65551 3.77295 6.13632 1.96372 7.53965 1.14682C8.94297 0.329927 10.7374 0.81471 11.5476 2.22961L17.6064 12.8104C18.4166 14.2253 17.9358 16.0346 16.5325 16.8515C15.1292 17.6684 13.3348 17.1836 12.5245 15.7687L6.46572 5.18785Z" fill="#4689F2"/>
</svg>