<svg xmlns="http://www.w3.org/2000/svg" viewBox="0 0 445.86 445.86"><defs><style>.cls-1{fill:#cb2027;}.cls-2{fill:#fff;}</style></defs><g id="Layer_2" data-name="Layer 2"><g id="pinterest"><circle id="background" class="cls-1" cx="222.93" cy="222.93" r="222.93"/><path class="cls-2" d="M240.55,287c-16.51-1.22-23.44-9-36.38-16.43-7.12,35.4-15.81,69.33-41.56,87.05-8-53.49,11.67-93.67,20.78-136.32-15.53-24.8,1.87-74.72,34.63-62.42C258.35,174,183.11,251,233.62,260.67c52.73,10.05,74.26-86.77,41.55-118.26-47.24-45.47-137.53-1-126.43,64.05,2.71,15.92,20,20.75,6.93,42.7-30.24-6.35-39.26-29-38.1-59.12,1.87-49.36,46.77-83.92,91.8-88.7,56.95-6,110.4,19.83,117.78,70.63C335.45,229.31,301.44,291.4,240.55,287Z"/></g></g></svg>