<svg xmlns="http://www.w3.org/2000/svg" viewBox="0 0 445.86 445.86"><defs><style>.cls-1{fill:#fffa3d;}.cls-2{fill:#fff;}</style></defs><g id="Layer_2" data-name="Layer 2"><g id="shapchat"><circle id="background" class="cls-1" cx="222.93" cy="222.93" r="222.93"/><path class="cls-2" d="M321.64,304.77c-5.52.46-6.44,6-7.81,12-.46,1.38-.92,3.22-1.38,5.06a21.12,21.12,0,0,1-4.6-.46,77.64,77.64,0,0,0-16.09-1.84,105.14,105.14,0,0,0-11.5.92c-8.27,1.38-15.63,6.44-22.53,11.5-10.11,7.35-21.61,10.57-35.4,10.57H220c-15.17,0-22.53-4.6-31.26-10.57-6.9-5.06-13.8-10.12-22.53-11.5a96.84,96.84,0,0,0-11.5-.92,67.22,67.22,0,0,0-16.09,1.84,20.24,20.24,0,0,1-4.6.92l-1.38-5.52c-1.38-6-2.3-11.49-7.81-12.41-20.23-2.76-27.13-6.9-29.43-8.74,37.7-7.81,55.17-44.59,57.47-49.65,2.76-6,3.22-11.5,1.38-16.09-3.68-8.28-13.79-11.5-20.23-13.34a6.65,6.65,0,0,1-3.22-.92c-7.81-3.22-9.19-6-9.19-6.43,0-1.38,3.22-3.22,6-3.22H129a36.13,36.13,0,0,0,15.64,4.14c6.89,0,10.57-3.22,11.49-4.14a4.18,4.18,0,0,0,1.38-3.22c0-2.76-.46-5.52-.46-8.28-1.38-17.93-2.76-40,2.76-51.95,16.09-36.32,50.57-39.08,60.69-39.08h5.06c10.11,0,44.6,2.76,61.15,38.16,5.06,11.95,3.68,34,2.76,51.95v.92c0,2.76-.46,5.06-.46,7.36a5.22,5.22,0,0,0,1.38,3.68c.92.92,4.13,3.68,11,4.14a51.11,51.11,0,0,0,14.71-4.14,6.76,6.76,0,0,1,5.06.46c2.3.92,3.22,2.3,3.22,2.76,0,.92-1.84,3.67-9.2,6.43a31.47,31.47,0,0,1-3.67,1.38c-6,1.84-16.1,5.06-19.77,13.34-2.3,4.59-1.38,10.11,1.37,16.09,1.84,4.6,18.86,42.3,57,50.12C347.85,297.87,341.41,301.55,321.64,304.77Z"/><path d="M354.66,287.76c-35-6-50.58-40.92-52.42-45.06v-.46c-1.84-3.68-2.3-6.44-1.38-8.74,1.84-4.13,9.66-6.89,14.71-8.27a31.69,31.69,0,0,0,3.68-1.38c9.66-4.14,14.72-9.2,14.72-15.17,0-4.6-3.68-9.2-9.2-11a14.69,14.69,0,0,0-6.44-1.38,18,18,0,0,0-6,1.38c-4.6,1.84-8.28,3.22-11,3.22a5.83,5.83,0,0,1-2.76-.46,14.18,14.18,0,0,0,.46-4.6v-.92c.92-18.85,2.76-42.3-3.68-56.09-18.85-41.38-57.93-44.6-69.42-44.6H220.4c-11.49,0-50.58,3.22-69,44.6-6.43,13.79-5.05,37.24-3.68,56.09a22.4,22.4,0,0,1,.46,5.52c-.92,0-2.29.46-3.67.46-3.68,0-7.36-.92-12-3.22-6.44-2.76-18.85,1.38-20.23,9.66-.92,4.59.92,11,14.71,16.55a21.39,21.39,0,0,0,4.14,1.38c4.6,1.38,12.42,4.14,14.26,8.27.92,1.84.45,5.06-1.38,8.74-.92,1.38-17,38.62-53.34,44.6a7.88,7.88,0,0,0-6,7.81,6.65,6.65,0,0,0,.92,3.22c2.76,7.36,14.72,12,36.33,15.64.46,1.37.92,4.13,1.38,5.51.46,1.84.92,4.14,1.38,6.44s2.75,6,8.27,6a36.08,36.08,0,0,0,6.44-.92,56.52,56.52,0,0,1,14.25-1.84,41.76,41.76,0,0,1,10.58,1.38c6.43.92,12.41,5.06,18.85,9.65,9.65,6.9,18.39,12,36.32,12h3.22c15.63,0,29.42-4.14,41.38-12,6.44-4.14,12.41-8.73,18.85-9.65a75.22,75.22,0,0,1,10.12-.92,65.11,65.11,0,0,1,14.25,1.38,47.84,47.84,0,0,0,6.9.92,7.88,7.88,0,0,0,7.81-6c.46-2.3.92-4.14,1.38-6.44.46-.92.92-3.68,1.38-5,21.61-3.22,32.18-8.28,35.4-15.18a8.53,8.53,0,0,0,.92-3.22C361.09,291.9,358.33,288.22,354.66,287.76Zm-32.65,17c-5.52.46-6.44,6-7.81,12-.46,1.38-.92,3.22-1.38,5.06a21.12,21.12,0,0,1-4.6-.46,77.64,77.64,0,0,0-16.09-1.84,105.14,105.14,0,0,0-11.5.92c-8.27,1.38-15.63,6.44-22.53,11.5-10.11,7.35-21.61,10.57-35.4,10.57h-2.3c-15.17,0-22.53-4.6-31.26-10.57-6.9-5.06-13.8-10.12-22.53-11.5a96.84,96.84,0,0,0-11.5-.92A67.22,67.22,0,0,0,139,321.32a20.24,20.24,0,0,1-4.6.92L133,316.72c-1.38-6-2.3-11.49-7.81-12.41-20.23-2.76-27.13-6.9-29.43-8.74,37.7-7.81,55.17-44.59,57.47-49.65,2.76-6,3.22-11.5,1.38-16.09-3.68-8.28-13.79-11.5-20.23-13.34a6.65,6.65,0,0,1-3.22-.92c-7.81-3.22-9.19-6-9.19-6.43,0-1.38,3.22-3.22,6-3.22h1.38A36.13,36.13,0,0,0,145,210.06c6.89,0,10.57-3.22,11.49-4.14a4.18,4.18,0,0,0,1.38-3.22c0-2.76-.46-5.52-.46-8.28-1.38-17.93-2.76-40,2.76-51.95,16.09-36.32,50.57-39.08,60.69-39.08h5.06c10.11,0,44.6,2.76,61.15,38.16,5.06,11.95,3.68,34,2.76,51.95v.92c0,2.76-.46,5.06-.46,7.36a5.22,5.22,0,0,0,1.38,3.68c.92.92,4.13,3.68,11,4.14a51.11,51.11,0,0,0,14.71-4.14,6.76,6.76,0,0,1,5.06.46c2.3.92,3.22,2.3,3.22,2.76,0,.92-1.84,3.67-9.2,6.43a32.17,32.17,0,0,1-3.67,1.38c-6,1.84-16.1,5.06-19.77,13.34-2.3,4.59-1.38,10.11,1.37,16.09,1.84,4.6,18.86,42.3,57,50.12C348.22,297.87,341.78,301.55,322,304.77Z"/></g></g></svg>